<?xml version="1.0" standalone="no"?>
<!DOCTYPE svg PUBLIC "-//W3C//DTD SVG 20010904//EN"
 "http://www.w3.org/TR/2001/REC-SVG-20010904/DTD/svg10.dtd">
<svg version="1.0" xmlns="http://www.w3.org/2000/svg"
 width="512.000000pt" height="512.000000pt" viewBox="0 0 512.000000 512.000000"
 preserveAspectRatio="xMidYMid meet">

<g transform="translate(0.000000,512.000000) scale(0.100000,-0.100000)"
fill="#000000" stroke="none">
<path d="M1495 4843 c-154 -12 -273 -28 -352 -48 -378 -96 -722 -439 -817
-815 -49 -195 -51 -246 -51 -1420 0 -1174 2 -1225 51 -1420 93 -367 429 -709
796 -810 193 -53 206 -53 1443 -57 798 -3 1175 -1 1233 7 186 25 409 116 559
229 259 195 439 497 482 805 6 43 11 207 11 365 0 282 0 289 -22 321 -53 77
-139 100 -212 58 -79 -46 -80 -52 -87 -408 -7 -340 -11 -370 -68 -507 -90
-218 -280 -404 -502 -492 -158 -62 -135 -61 -1304 -61 -1249 0 -1360 6 -1530
77 -204 86 -402 292 -471 492 -59 169 -59 172 -59 1401 0 1229 0 1232 59 1401
84 241 339 473 581 528 142 32 205 34 1100 40 l910 6 38 24 c51 31 81 91 74
149 -5 50 -29 87 -77 120 l-33 22 -856 -2 c-471 -1 -874 -3 -896 -5z"/>
<path d="M4420 3989 c-14 -5 -439 -424 -945 -930 l-921 -920 -384 336 c-412
359 -422 366 -499 345 -101 -27 -150 -130 -106 -224 17 -34 887 -802 933 -823
37 -16 86 -16 125 1 19 8 442 425 1019 1002 1070 1072 1011 1007 994 1099 -17
91 -127 149 -216 114z"/>
</g>
</svg>
