<?xml version="1.0" standalone="no"?>
<!DOCTYPE svg PUBLIC "-//W3C//DTD SVG 20010904//EN"
 "http://www.w3.org/TR/2001/REC-SVG-20010904/DTD/svg10.dtd">
<svg version="1.0" xmlns="http://www.w3.org/2000/svg"
 width="512.000000pt" height="512.000000pt" viewBox="0 0 512.000000 512.000000"
 preserveAspectRatio="xMidYMid meet">
<metadata>
Created by potrace 1.16, written by Peter Selinger 2001-2019
</metadata>
<g transform="translate(0.000000,512.000000) scale(0.100000,-0.100000)"
fill="#000000" stroke="none">
<path d="M560 5100 c-41 -11 -113 -39 -160 -62 -69 -34 -103 -60 -180 -138
-78 -77 -104 -111 -138 -180 -23 -47 -51 -121 -62 -164 -20 -78 -20 -117 -20
-1996 0 -1879 0 -1918 20 -1996 11 -43 39 -117 62 -164 34 -69 60 -103 138
-180 77 -78 111 -104 180 -138 172 -85 125 -82 1132 -82 l888 0 0 910 0 910
-300 0 -300 0 0 300 0 300 300 0 300 0 0 358 c0 385 9 510 41 613 71 227 261
417 488 488 103 32 228 41 614 41 l357 0 0 -300 0 -300 -337 0 c-335 0 -338 0
-389 -24 -65 -30 -120 -85 -150 -150 -24 -51 -24 -54 -24 -388 l0 -338 433 0
434 0 -50 -300 -50 -300 -384 0 -383 0 0 -910 0 -910 728 0 c826 0 803 -2 972
82 69 34 103 60 180 138 78 77 104 111 138 180 23 47 51 121 62 164 20 78 20
117 20 1996 0 1879 0 1918 -20 1996 -11 43 -39 117 -62 164 -34 69 -60 103
-138 180 -77 78 -111 104 -180 138 -47 23 -121 51 -164 62 -78 20 -116 20
-2000 19 -1864 0 -1923 -1 -1996 -19z m3941 -306 c82 -32 109 -47 161 -93 60
-53 101 -117 130 -199 l23 -67 0 -1875 0 -1875 -23 -67 c-29 -82 -70 -146
-130 -199 -53 -46 -80 -62 -161 -92 -54 -20 -77 -21 -618 -25 l-563 -3 0 610
0 611 367 2 367 3 97 580 c54 319 98 588 98 598 1 16 -28 17 -464 17 l-465 0
0 150 0 150 450 0 450 0 0 600 0 601 -622 -3 -623 -3 -90 -28 c-362 -111 -622
-372 -731 -732 -27 -88 -28 -96 -32 -412 l-4 -323 -299 0 -299 0 0 -600 0
-600 300 0 300 0 0 -611 0 -610 -722 3 -723 3 -68 26 c-83 33 -136 69 -189
128 -45 51 -60 79 -92 160 l-21 56 -3 1825 c-1 1074 1 1856 7 1900 27 225 176
380 391 410 30 4 885 7 1900 6 l1845 -1 56 -21z"/>
</g>
</svg>
