<?xml version="1.0" standalone="no"?>
<!DOCTYPE svg PUBLIC "-//W3C//DTD SVG 20010904//EN"
 "http://www.w3.org/TR/2001/REC-SVG-20010904/DTD/svg10.dtd">
<svg version="1.0" xmlns="http://www.w3.org/2000/svg"
 width="400.000000pt" height="370.000000pt" viewBox="0 0 400.000000 370.000000"
 preserveAspectRatio="xMidYMid meet">
<metadata>
Created by potrace 1.16, written by Peter Selinger 2001-2019
</metadata>
<g transform="translate(0.000000,370.000000) scale(0.100000,-0.100000)"
fill="#000000" stroke="none">
<path d="M0 1850 l0 -1850 2000 0 2000 0 0 1850 0 1850 -2000 0 -2000 0 0
-1850z m3918 1768 c17 -17 17 -3539 0 -3556 -17 -17 -3809 -17 -3826 0 -17 17
-17 3539 0 3556 17 17 3809 17 3826 0z"/>
<path d="M551 3251 c-19 -19 -19 -35 -14 -520 6 -461 5 -503 -11 -546 -10 -25
-29 -53 -42 -62 l-25 -16 24 -26 c56 -60 57 -64 57 -409 0 -300 1 -320 19
-336 16 -15 43 -17 185 -18 146 0 169 2 186 17 19 17 20 33 20 411 0 253 4
395 10 399 6 3 13 -2 16 -12 12 -33 125 -285 167 -371 11 -25 31 -48 45 -53
32 -12 249 -11 272 1 18 10 38 47 92 170 11 25 26 59 33 75 16 37 88 188 92
194 12 18 15 -56 13 -401 -1 -382 0 -395 19 -412 18 -16 40 -18 184 -18 116 0
171 4 185 13 20 13 21 23 24 349 l3 336 33 41 c17 22 32 44 32 47 0 3 -15 19
-32 35 l-33 29 -3 534 -3 533 -22 17 c-19 15 -45 18 -174 18 -92 0 -162 -4
-177 -11 -15 -7 -33 -31 -46 -63 -12 -28 -35 -78 -51 -111 -16 -33 -29 -64
-29 -69 0 -5 -15 -41 -34 -80 -55 -115 -81 -173 -151 -337 -67 -154 -97 -202
-113 -184 -5 6 -20 37 -33 70 -13 33 -36 85 -51 115 -16 30 -28 60 -28 67 0 7
-13 39 -29 70 -16 32 -48 101 -71 153 -23 52 -57 127 -76 166 -19 39 -34 75
-34 80 0 15 -34 78 -57 108 l-21 26 -166 0 c-151 0 -168 -2 -185 -19z"/>
<path d="M2470 2264 c-6 -15 -10 -226 -10 -529 0 -332 -4 -513 -11 -532 -5
-15 -22 -40 -37 -56 l-26 -27 35 -36 34 -35 5 -340 c5 -323 6 -341 24 -355 16
-11 88 -14 401 -14 223 0 405 4 438 10 141 27 243 107 295 234 14 34 17 77 17
258 l0 217 -29 30 -28 29 28 38 29 37 0 411 0 411 -33 60 c-58 104 -114 149
-250 199 -36 14 -103 16 -457 16 l-415 0 -10 -26z m748 -396 c9 -9 12 -81 12
-265 0 -239 -1 -253 -19 -263 -28 -15 -314 -13 -329 2 -13 13 -18 519 -5 531
12 13 328 8 341 -5z m-2 -962 c8 -12 14 -44 14 -78 0 -46 -4 -59 -19 -68 -28
-15 -314 -13 -329 2 -7 7 -12 38 -12 70 0 45 5 63 21 79 19 19 30 20 166 17
130 -3 146 -5 159 -22z"/>
</g>
</svg>
