<?xml version="1.0" standalone="no"?>
<!DOCTYPE svg PUBLIC "-//W3C//DTD SVG 20010904//EN"
 "http://www.w3.org/TR/2001/REC-SVG-20010904/DTD/svg10.dtd">
<svg version="1.0" xmlns="http://www.w3.org/2000/svg"
 width="512.000000pt" height="512.000000pt" viewBox="0 0 512.000000 512.000000"
 preserveAspectRatio="xMidYMid meet">
<metadata>
Created by potrace 1.16, written by Peter Selinger 2001-2019
</metadata>
<g transform="translate(0.000000,512.000000) scale(0.100000,-0.100000)"
fill="#000000" stroke="none">
<path d="M1036 4979 c-224 -33 -425 -136 -592 -303 -141 -141 -229 -292 -282
-485 l-27 -96 0 -1535 0 -1535 28 -99 c55 -196 140 -341 281 -482 141 -141
286 -226 482 -281 l99 -28 1520 0 c1432 0 1525 1 1604 18 200 43 366 134 517
282 150 147 234 289 291 491 l28 99 0 1535 0 1535 -28 99 c-55 196 -140 341
-281 482 -141 141 -292 229 -485 282 l-96 27 -1500 1 c-825 1 -1526 -2 -1559
-7z m3089 -273 c293 -88 500 -297 582 -586 17 -62 18 -139 18 -1560 0 -1421
-1 -1498 -18 -1560 -83 -291 -296 -504 -587 -587 -62 -17 -139 -18 -1560 -18
-1421 0 -1498 1 -1560 18 -291 83 -504 296 -587 587 -17 62 -18 139 -18 1560
0 1421 1 1498 18 1560 90 317 340 546 655 600 26 4 711 7 1522 6 1392 -1 1478
-3 1535 -20z"/>
<path d="M921 4145 c-35 -31 -55 -84 -47 -128 4 -23 198 -272 667 -856 415
-516 658 -828 655 -837 -3 -8 -214 -275 -469 -592 -256 -318 -470 -589 -477
-602 -7 -14 -10 -41 -7 -69 4 -36 13 -52 41 -78 30 -28 43 -33 85 -33 34 0 56
6 75 21 15 12 228 272 473 578 245 306 449 559 452 564 4 4 211 -247 461 -559
250 -311 465 -574 478 -585 24 -18 45 -19 444 -19 l420 0 33 33 c38 38 50 72
41 120 -4 23 -191 263 -667 856 -412 514 -658 828 -655 837 3 8 214 275 469
592 256 318 470 589 477 602 7 14 10 41 7 69 -4 36 -13 52 -41 78 -30 28 -43
33 -85 33 -34 0 -56 -6 -75 -21 -15 -12 -228 -272 -473 -578 -245 -306 -449
-559 -452 -564 -4 -4 -211 247 -461 559 -250 311 -465 574 -478 585 -23 18
-45 19 -443 19 l-417 0 -31 -25z m1796 -1532 c573 -714 1060 -1322 1083 -1350
l42 -53 -199 0 -199 0 -1041 1298 c-573 713 -1060 1321 -1083 1350 l-42 52
199 0 199 0 1041 -1297z"/>
</g>
</svg>
