<?xml version="1.0" standalone="no"?>
<!DOCTYPE svg PUBLIC "-//W3C//DTD SVG 20010904//EN"
 "http://www.w3.org/TR/2001/REC-SVG-20010904/DTD/svg10.dtd">
<svg version="1.0" xmlns="http://www.w3.org/2000/svg"
 width="512.000000pt" height="512.000000pt" viewBox="0 0 512.000000 512.000000"
 preserveAspectRatio="xMidYMid meet">
<metadata>
Created by potrace 1.16, written by Peter Selinger 2001-2019
</metadata>
<g transform="translate(0.000000,512.000000) scale(0.100000,-0.100000)"
fill="#000000" stroke="none">
<path d="M2255 5109 c-472 -57 -939 -254 -1315 -555 -109 -88 -296 -275 -384
-384 -300 -375 -478 -797 -542 -1280 -22 -172 -15 -557 14 -710 52 -272 129
-506 238 -721 19 -38 34 -76 34 -85 0 -15 -284 -1319 -296 -1356 -4 -12 0 -18
11 -18 10 0 325 70 701 156 l685 155 127 -54 c233 -100 471 -166 722 -199 143
-19 509 -16 655 6 577 84 1065 327 1470 731 394 394 640 884 722 1440 24 167
24 534 0 695 -45 294 -122 533 -253 791 -128 251 -276 453 -488 664 -374 372
-830 608 -1356 702 -127 22 -178 26 -405 29 -143 1 -296 -2 -340 -7z m595
-415 c969 -127 1751 -936 1850 -1913 91 -904 -440 -1791 -1291 -2154 -588
-251 -1249 -232 -1815 54 l-131 66 -457 -104 c-252 -58 -459 -103 -461 -101
-2 2 42 207 96 455 l100 453 -60 107 c-155 277 -252 599 -270 895 -43 721 277
1402 864 1838 452 336 1006 478 1575 404z"/>
<path d="M1705 3701 c-85 -22 -178 -115 -245 -242 -52 -99 -72 -189 -73 -314
0 -194 74 -380 252 -633 139 -197 205 -277 345 -417 247 -247 446 -373 768
-489 257 -92 424 -121 573 -98 137 22 322 136 380 236 56 95 85 305 48 339
-24 21 -455 233 -516 253 -26 9 -59 13 -72 10 -15 -4 -60 -51 -118 -124 -128
-160 -150 -182 -182 -182 -39 0 -244 101 -357 176 -164 109 -329 279 -448 459
-86 132 -86 129 15 235 68 72 115 153 115 200 0 30 -184 489 -214 536 -30 45
-63 58 -155 61 -47 1 -99 -1 -116 -6z"/>
</g>
</svg>
